# xmcd
#
# Track frame offsets:
#  150
#  16650
#  33383
#  45823
#  62877
#  78073
#  92475
#  107115
#  123657
#  140645
#  154956
#  174434
#  185710
#  204155
#  237379
#  253821
#  274827
#  297822
#  321798
#
# Disc length: 4749 seconds
#
# Revision: 0
# Processed by: cddbd v1.5.2PL0 Copyright (c) Steve Scherf et al.
# Submitted via: AltoMP3_Maker 3.0
#
DISCID=05128b13
DTITLE=JP Amouroux - Festival de Boogie Woogie de Laroquebrou 06
DYEAR=1900
DGENRE=
TTITLE0=Tribute to Pete Johnson
TTITLE1=Rolling left hand
TTITLE2=Groovy Stomp
TTITLE3=Yancey Special
TTITLE4=Mess Around
TTITLE5=JPA/JPB Boogie
TTITLE6=Peter/Jörg/Jean Paul Boogie
TTITLE7=Sixth Avenue Express
TTITLE8=Take a walk with me
TTITLE9=T'ain't what you say
TTITLE10=Roll'em Boy
TTITLE11=Roll'em Pete
TTITLE12=Boogie Woogie country girl
TTITLE13=Drum Boogie
TTITLE14=Sax Battle
TTITLE15=Mojo working
TTITLE16=Early morning Boogie
TTITLE17=Route 66 - Alright, OK, you win
TTITLE18=When the Saints go marchin' in
EXTD=
EXTT0=
EXTT1=
EXTT2=
EXTT3=
EXTT4=
EXTT5=
EXTT6=
EXTT7=
EXTT8=
EXTT9=
EXTT10=
EXTT11=
EXTT12=
EXTT13=
EXTT14=
EXTT15=
EXTT16=
EXTT17=
EXTT18=
PLAYORDER=
